PathFileType	4	(X/Y/Z)	s02c0303.trc
DataRate	CameraRate	NumFrames	NumMarkers	Units	OrigDataRate	OrigDataStartFrame	OrigNumFrames
200	200	6	50	mm	200	1000	2000
Frame#	Time	racr			lacr			c7			jug			rlel			rdr			llel			ldr			s2			lic			ric			lasi			rasi			rpsi			lpsi			rgt			lgt			rth1			rth2			rth3			rth4			rlfc			rmfc			rsh1			rsh2			rsh3			rsh4			rlmal			rmmal			rtoe			rmt5			rmt1			lth1			lth2			lth4			lth3			llfc			lmfc			lsh1			lsh2			lsh3			lsh4			llmal			lmmal			lcal			ltoe			lmt5			SBIKE			LBIKE			RBIKE			
		X1	Y1	Z1	X2	Y2	Z2	X3	Y3	Z3	X4	Y4	Z4	X5	Y5	Z5	X6	Y6	Z6	X7	Y7	Z7	X8	Y8	Z8	X9	Y9	Z9	X10	Y10	Z10	X11	Y11	Z11	X12	Y12	Z12	X13	Y13	Z13	X14	Y14	Z14	X15	Y15	Z15	X16	Y16	Z16	X17	Y17	Z17	X18	Y18	Z18	X19	Y19	Z19	X20	Y20	Z20	X21	Y21	Z21	X22	Y22	Z22	X23	Y23	Z23	X24	Y24	Z24	X25	Y25	Z25	X26	Y26	Z26	X27	Y27	Z27	X28	Y28	Z28	X29	Y29	Z29	X30	Y30	Z30	X31	Y31	Z31	X32	Y32	Z32	X33	Y33	Z33	X34	Y34	Z34	X35	Y35	Z35	X36	Y36	Z36	X37	Y37	Z37	X38	Y38	Z38	X39	Y39	Z39	X40	Y40	Z40	X41	Y41	Z41	X42	Y42	Z42	X43	Y43	Z43	X44	Y44	Z44	X45	Y45	Z45	X46	Y46	Z46	X47	Y47	Z47	X48	Y48	Z48	X49	Y49	Z49	X50	Y50	Z50	
1000	5.0000	736.624218	1244.750635	-193.687712	690.801813	1235.705360	-525.540956	708.096846	1275.815199	-368.670911	633.512108	1153.081436	-348.221371	643.244438	1018.763060	-60.455367	730.279067	842.291809	-125.981523	545.919395	998.523224	-613.070293	706.591133	864.822789	-533.755536	175.073577	1199.232186	-295.891279	283.117739	1188.167356	-454.145907	305.134360	1164.173572	-161.375438	321.790235	1146.583355	-432.408331	347.298879	1127.551851	-190.963742	197.518710	1227.951042	-252.714103	201.026237	1236.965046	-338.881484	261.135313	1074.202027	-127.841823	234.885852	1102.215866	-482.811023	322.609636	997.160597	-128.305389	378.784190	928.915457	-126.222662	396.424721	847.279716	-104.318005	408.576511	940.625752	-146.128380	419.707256	708.968381	-132.478197	411.871599	690.549264	-241.587322	362.018362	613.319329	-113.627315	325.721252	532.522356	-129.062582	257.707886	479.490843	-125.156505	337.893852	526.451890	-166.806872	171.038536	386.052100	-131.254279	197.268097	401.099471	-210.575095	242.265063	167.367933	-192.740245	170.999306	247.654845	-128.879126	196.655742	236.367103	-238.433053	348.199215	1027.714312	-510.682818	425.993480	990.322405	-517.269242	449.520057	1014.430457	-498.977929	474.452210	915.173977	-522.999297	549.079581	839.078361	-510.978541	565.636126	813.231817	-404.274428	515.064748	738.588594	-523.411194	491.905350	658.006416	-500.947061	428.584667	594.004334	-497.624628	511.581356	653.224343	-465.625736	357.871924	513.880232	-476.179783	378.799170	509.011453	-400.144344	281.583121	475.197398	-434.872738	558.734473	397.147711	-450.791593	448.128901	400.592088	-508.886356	-128.788407	869.281642	-314.628038	32.591376	82.346101	-515.188620	32.496887	82.635862	-115.262019	
1001	5.0050	735.853842	1247.648401	-194.175323	690.018955	1235.964491	-525.889039	707.093837	1276.948349	-369.079539	633.628221	1153.720301	-347.582583	644.956125	1020.414938	-59.867510	730.399165	842.269111	-125.470545	544.234585	998.311901	-611.527348	706.303938	865.110469	-533.557816	174.177270	1198.989320	-296.199734	282.746249	1186.550144	-453.713801	304.214297	1165.983567	-161.668320	321.333463	1144.788266	-431.483644	346.826813	1129.663406	-190.965912	196.319098	1229.517159	-253.349866	200.111216	1237.068569	-339.510727	262.440969	1075.613767	-127.197090	232.757532	1100.034852	-481.968827	325.765403	999.883050	-128.660450	383.197517	932.452174	-127.163617	402.664689	851.381733	-105.132285	411.842992	944.224736	-148.253119	427.417602	713.172872	-132.182789	417.572505	694.373933	-241.186892	366.952640	617.743384	-113.321777	328.761178	537.850201	-128.796955	259.393741	486.637388	-124.567680	340.640744	531.651872	-166.540562	170.214844	395.281805	-130.721843	197.162820	409.313001	-210.759041	236.989631	175.251451	-192.745384	167.358815	257.024019	-128.790606	192.075807	245.037053	-238.802834	345.114332	1024.055664	-510.287361	422.357972	985.527188	-517.748051	446.315487	1009.610052	-500.257028	469.200036	909.821511	-524.565573	543.312302	832.983700	-511.053023	560.754903	805.848914	-406.160936	510.575165	730.868086	-523.994841	489.898846	649.642619	-501.505533	428.304515	583.963301	-497.461743	510.398655	645.280271	-466.838522	360.342684	502.842343	-475.761759	381.747278	498.255398	-399.834591	284.992664	463.598765	-434.028890	563.031347	388.255362	-451.708630	451.807304	390.606899	-508.761367	-128.769087	869.292535	-314.489497	32.568707	82.381872	-515.173935	32.503429	82.627203	-115.253585	
1002	5.0100	734.998766	1250.674695	-194.439365	689.510123	1235.775156	-525.979554	706.201654	1278.199959	-369.436785	633.616054	1154.639019	-346.890281	646.495508	1021.754745	-59.797075	730.572181	842.205700	-124.884842	542.973421	997.951031	-610.300760	706.109885	865.287722	-533.331962	173.311314	1198.656234	-296.539317	281.372061	1184.274804	-453.182397	303.331267	1167.531365	-161.899967	320.968644	1142.688522	-430.600037	346.341616	1131.646181	-191.207534	195.212386	1230.552251	-254.137906	198.162058	1236.554082	-340.120982	264.019580	1077.152553	-126.390930	230.645064	1097.748094	-481.220434	328.666726	1002.177894	-129.577652	387.413972	935.894291	-128.441533	408.703392	855.406180	-105.945868	415.434456	947.966871	-149.639901	434.958837	717.255442	-131.921498	423.526743	697.836665	-239.878530	372.251507	622.139084	-112.915652	332.117304	543.206413	-128.480482	261.454318	493.570591	-124.075690	343.651499	536.829483	-166.263148	170.078948	404.698469	-130.282038	197.489112	418.320224	-210.422700	232.281453	183.311074	-192.813897	164.422505	266.470697	-128.731615	190.573968	254.677984	-237.795676	341.998422	1020.269650	-510.392790	418.788784	980.445993	-517.997822	443.074979	1004.516701	-501.468299	464.499591	904.083394	-524.447876	537.262129	826.248487	-511.756135	556.471309	799.344286	-407.322298	506.108547	723.515753	-524.569606	487.863402	641.699428	-502.257488	428.011489	574.409993	-497.562251	508.872123	637.836925	-467.699556	362.678371	491.857266	-475.604224	384.503418	487.733758	-399.835000	288.109942	452.278367	-433.750502	566.554671	378.185901	-451.986582	455.111987	380.021992	-508.702190	-128.756077	869.320062	-314.346914	32.589075	82.415088	-515.159312	32.508215	82.622034	-115.241813	
1003	5.0150	733.964671	1253.645658	-194.527482	689.323275	1235.101985	-525.793785	705.341292	1279.339669	-369.669315	633.669179	1155.432848	-346.124428	648.081604	1023.083194	-59.764681	730.815681	842.075235	-124.333795	542.020374	997.381931	-609.409090	705.952037	865.370599	-533.205468	172.233572	1198.360185	-296.842982	280.835511	1182.100239	-452.747925	302.383464	1168.661224	-162.247983	320.698117	1140.289862	-429.772227	345.782084	1133.443253	-191.693420	194.167377	1231.208348	-254.936833	197.079254	1236.125855	-340.841679	265.456161	1078.344669	-125.568487	228.686302	1095.367979	-480.423779	331.505678	1004.570432	-130.062702	391.411474	939.332462	-129.221757	414.651888	859.393045	-106.667587	418.755723	951.678582	-151.255165	442.167279	721.167929	-131.597560	428.302223	701.411116	-239.962545	377.746605	626.454419	-112.387140	335.053261	548.121704	-128.899605	263.759544	500.921470	-123.443259	346.950995	542.057129	-165.927423	170.476597	414.195932	-129.866233	198.407660	427.383694	-210.048360	228.187451	191.623712	-192.772643	162.098431	276.334484	-128.613197	188.083499	263.915901	-237.892945	338.937354	1016.271604	-510.550248	415.174739	975.113428	-518.191029	439.884258	999.143541	-502.449853	459.726119	898.212102	-524.322269	531.528516	819.787013	-511.837062	552.343271	792.711356	-408.154440	501.674979	716.544937	-525.026121	485.787295	633.953405	-503.133950	427.520048	565.647891	-497.924410	507.374215	630.448619	-468.854867	364.819423	480.872111	-475.823863	386.914071	477.118246	-399.857860	290.892162	441.250017	-433.862999	569.633093	367.575899	-451.849863	458.125024	369.258166	-508.619876	-128.720122	869.384562	-314.153628	32.608085	82.428644	-515.141588	32.507669	82.636025	-115.242929	
1004	5.0200	732.938344	1256.650428	-194.526339	689.407920	1234.129901	-525.348284	704.584163	1280.356976	-369.702639	633.970210	1156.046030	-345.116439	649.533075	1024.319425	-59.911679	731.050055	841.908654	-123.900620	541.421282	996.765395	-608.893919	705.801470	865.383112	-533.130411	171.276026	1197.576953	-297.191503	280.550873	1179.774286	-452.225870	301.512895	1169.439254	-162.583655	320.524345	1137.598270	-429.014905	345.203887	1135.066729	-192.240733	193.162020	1231.275834	-255.689365	196.262989	1234.990998	-341.227926	266.866439	1079.369008	-124.872549	226.833252	1092.992969	-479.704908	334.095794	1006.822005	-130.559501	395.124000	942.614176	-129.997459	420.006529	863.423072	-107.312993	421.815337	955.069401	-153.579342	449.253087	724.974256	-131.021051	433.471210	705.141687	-239.499910	383.188008	630.968047	-112.182489	338.344174	554.049428	-128.668306	266.635579	507.552072	-123.658625	350.161505	546.985014	-166.186414	171.274884	423.942662	-129.589207	199.752356	436.619391	-209.555821	224.826585	200.329897	-192.780973	160.399980	286.298833	-128.655242	186.130070	273.360139	-238.096228	335.917067	1012.114055	-510.529884	411.580429	969.967656	-518.846053	436.651903	993.515128	-503.379541	454.688458	892.172392	-524.761855	526.055846	813.279529	-512.314260	548.113501	786.085714	-408.728469	497.237629	709.749292	-525.325081	483.563874	626.607549	-504.105420	426.751780	556.809619	-498.113817	505.833464	623.227556	-470.196804	366.735364	469.807648	-476.192688	388.799987	466.472826	-400.027018	293.141815	430.308954	-433.824468	572.068573	356.632913	-451.500199	460.625532	358.462686	-508.542132	-128.690757	869.388687	-314.119195	32.646000	82.440996	-515.133180	32.854648	82.427551	-115.081775	
1005	5.0250	731.845999	1259.471429	-194.291747	689.718434	1233.031291	-524.715398	703.907580	1281.386763	-369.657290	634.192835	1156.749988	-344.173914	650.790770	1025.460195	-60.238894	732.164108	841.948059	-122.965891	541.031016	996.145107	-608.659863	705.631708	865.341896	-533.132508	170.524324	1196.238563	-297.612997	280.216055	1176.877071	-452.000584	300.563660	1169.905390	-163.115038	320.449727	1134.619608	-428.342729	344.567380	1136.222589	-192.843869	192.150195	1230.745557	-256.544908	195.394936	1233.652166	-342.123832	268.060677	1080.100565	-124.228766	225.311076	1090.338639	-478.988893	336.328794	1008.813226	-130.888290	398.429873	945.884403	-130.729593	425.044715	867.293459	-107.789988	424.390574	958.324247	-155.264227	456.179223	728.666380	-130.467638	438.774996	708.750814	-238.907797	388.705168	635.521866	-112.101738	342.235598	559.626972	-128.574692	269.428884	514.716972	-123.536990	353.707908	552.440127	-166.242176	172.337501	433.815267	-129.395961	201.435160	445.926383	-208.889982	222.305828	209.558811	-192.707655	159.381236	296.480865	-128.580928	184.787369	283.189874	-238.239713	333.071875	1007.767227	-510.435582	407.967787	964.215281	-518.860429	433.581080	987.566008	-503.982434	449.786074	885.777803	-524.483902	520.430561	806.563454	-511.820536	543.771833	779.217956	-409.046141	492.750281	703.002142	-525.507397	481.108755	619.305886	-505.091484	425.710531	548.458667	-498.661467	504.003763	615.918081	-471.467868	368.180012	458.795235	-476.593047	390.287629	455.786782	-400.778287	295.072189	419.738048	-434.366336	573.851725	345.276324	-451.334035	462.505997	347.359565	-508.459909	-128.632364	869.404804	-314.126324	32.700900	82.413672	-515.104461	32.532821	82.648311	-115.215437	
